<?xml version="1.0" encoding="UTF-8" standalone="no"?>
<svg
   xmlns:dc="http://purl.org/dc/elements/1.1/"
   xmlns:cc="http://creativecommons.org/ns#"
   xmlns:rdf="http://www.w3.org/1999/02/22-rdf-syntax-ns#"
   xmlns:svg="http://www.w3.org/2000/svg"
   xmlns="http://www.w3.org/2000/svg"
   xmlns:sodipodi="http://sodipodi.sourceforge.net/DTD/sodipodi-0.dtd"
   xmlns:inkscape="http://www.inkscape.org/namespaces/inkscape"
   version="1.0"
   x="0px"
   y="0px"
   viewBox="0 0 98.334874 58.965781"
   enable-background="new 0 0 100 100"
   xml:space="preserve"
   id="svg2"
   inkscape:version="0.48.5 r10040"
   width="100%"
   height="100%"
   sodipodi:docname="frequency_gauge.svg"><metadata
     id="metadata14"><rdf:RDF><cc:Work
         rdf:about=""><dc:format>image/svg+xml</dc:format><dc:type
           rdf:resource="http://purl.org/dc/dcmitype/StillImage" /><dc:title></dc:title></cc:Work></rdf:RDF></metadata><defs
     id="defs12" /><sodipodi:namedview
     pagecolor="#ffffff"
     bordercolor="#666666"
     borderopacity="1"
     objecttolerance="10"
     gridtolerance="10"
     guidetolerance="10"
     inkscape:pageopacity="0"
     inkscape:pageshadow="2"
     inkscape:window-width="1920"
     inkscape:window-height="1028"
     id="namedview10"
     showgrid="false"
     fit-margin-top="0"
     fit-margin-left="0"
     fit-margin-right="0"
     fit-margin-bottom="0"
     inkscape:zoom="5.3400704"
     inkscape:cx="-3.0190803"
     inkscape:cy="5.6964301"
     inkscape:window-x="0"
     inkscape:window-y="0"
     inkscape:window-maximized="1"
     inkscape:current-layer="svg2" /><path
     d="M 98.276511,44.875293 C 93.870035,30.28179 82.396119,18.127394 68.160511,12.727293 69.460166,8.5605271 71.021454,4.4138791 72.163011,0.23541765 70.90244,-0.07735016 70.684365,2.4938389 69.898445,3.4080422 68.496467,6.2171258 67.094489,9.0262094 65.692511,11.835293 47.545383,5.6847048 26.131458,10.382418 12.585206,24.042154 6.7813668,29.840197 2.2218346,37.058487 0.0028548,44.972965 c 0.64105935,1.699005 2.9323116,1.747478 4.3639398,2.623781 4.5263882,1.873407 8.9886864,3.942137 13.5549504,5.694016 2.732288,-1.645646 4.160875,-5.311512 6.947703,-7.229453 7.56591,-6.817215 18.105289,-10.129797 28.213063,-8.962016 -2.608347,5.314032 -5.360385,10.567128 -7.878873,15.919268 -1.911023,5.40429 6.838398,8.448127 8.727873,3.074732 1.930667,-5.884 3.861333,-11.768 5.792,-17.652 7.987072,2.375312 15.087794,7.619886 19.652,14.598 1.520445,1.325714 3.332585,-0.575187 4.950249,-0.965724 4.528229,-1.992489 9.166046,-3.78199 13.625204,-5.902417 0.339337,-0.326269 0.471424,-0.847511 0.325547,-1.295859 z m -49.164,-10.567 c -5.026226,-0.0034 -10.049198,0.979261 -14.707,2.867 -3.354333,-6.289333 -6.708667,-12.578667 -10.063,-18.868 12.021863,-6.96606 26.996304,-8.4292298 40.191,-4.15 -3.410667,6.834 -6.821333,13.668 -10.232,20.502 -1.719815,-0.226946 -3.453978,-0.35113 -5.189,-0.351 z m 31.802,16.432 c -4.883036,-7.022121 -12.198473,-12.29043 -20.388,-14.744 2.277667,-6.942333 4.555333,-13.884667 6.833,-20.827 13.088989,5.01697 23.725164,16.033659 28.111,29.367 -4.852,2.068 -9.704,4.136 -14.556,6.204 z"
     id="path4"
     inkscape:connector-curvature="0"
     style="fill:#a0a0a0;fill-opacity:1" /><flowRoot
     xml:space="preserve"
     id="flowRoot3002"
     style="font-size:40px;font-style:normal;font-variant:normal;font-weight:normal;font-stretch:normal;line-height:125%;letter-spacing:0px;word-spacing:0px;fill:#000000;fill-opacity:1;stroke:none;font-family:Gabriola;-inkscape-font-specification:Gabriola"
     transform="translate(-0.83248895,-19.149707)"><flowRegion
       id="flowRegion3004"><rect
         id="rect3006"
         width="81.834129"
         height="41.572487"
         x="-7.6778016"
         y="97.659538" /></flowRegion><flowPara
       id="flowPara3008"></flowPara></flowRoot></svg>